<svg xmlns="http://www.w3.org/2000/svg" viewBox="0 0 1200 560">
  <defs>
    <linearGradient id="g3" x1="0" y1="0" x2="1" y2="1">
      <stop offset="0%" stop-color="#064e3b"/>
      <stop offset="100%" stop-color="#065f46"/>
    </linearGradient>
  </defs>
  <rect width="1200" height="560" fill="url(#g3)"/>
  <g stroke="rgba(255,255,255,0.05)" stroke-width="1">
    <line x1="0" y1="93" x2="1200" y2="93"/>
    <line x1="0" y1="186" x2="1200" y2="186"/>
    <line x1="0" y1="279" x2="1200" y2="279"/>
    <line x1="0" y1="372" x2="1200" y2="372"/>
    <line x1="0" y1="465" x2="1200" y2="465"/>
    <line x1="150" y1="0" x2="150" y2="560"/>
    <line x1="300" y1="0" x2="300" y2="560"/>
    <line x1="450" y1="0" x2="450" y2="560"/>
    <line x1="600" y1="0" x2="600" y2="560"/>
    <line x1="750" y1="0" x2="750" y2="560"/>
    <line x1="900" y1="0" x2="900" y2="560"/>
    <line x1="1050" y1="0" x2="1050" y2="560"/>
  </g>
  <!-- hexagon grid pattern right side -->
  <g opacity="0.12" fill="none" stroke="white" stroke-width="2">
    <polygon points="900,120 940,100 980,120 980,160 940,180 900,160"/>
    <polygon points="980,120 1020,100 1060,120 1060,160 1020,180 980,160"/>
    <polygon points="940,180 980,160 1020,180 1020,220 980,240 940,220"/>
    <polygon points="900,240 940,220 980,240 980,280 940,300 900,280"/>
    <polygon points="980,240 1020,220 1060,240 1060,280 1020,300 980,280"/>
    <polygon points="940,300 980,280 1020,300 1020,340 980,360 940,340"/>
    <polygon points="900,360 940,340 980,360 980,400 940,420 900,400"/>
    <polygon points="980,360 1020,340 1060,360 1060,400 1020,420 980,400"/>
    <polygon points="1060,120 1100,100 1140,120 1140,160 1100,180 1060,160"/>
    <polygon points="1060,240 1100,220 1140,240 1140,280 1100,300 1060,280"/>
    <polygon points="1060,360 1100,340 1140,360 1140,400 1100,420 1060,400"/>
  </g>
  <circle cx="200" cy="100" r="200" fill="rgba(255,255,255,0.03)"/>
</svg>
